<?xml version="1.0" standalone="no"?><!-- Generator: Gravit.io --><svg xmlns="http://www.w3.org/2000/svg" xmlns:xlink="http://www.w3.org/1999/xlink" style="isolation:isolate" viewBox="0 0 176.515 67.375" width="176.515" height="67.375"><defs><clipPath id="_clipPath_mPTSC1ecHiI4LMLaMbIBAdEugFiNxpIX"><rect width="176.515" height="67.375"/></clipPath></defs><g clip-path="url(#_clipPath_mPTSC1ecHiI4LMLaMbIBAdEugFiNxpIX)"><path d=" M 150.646 11.042 C 150.165 11.581 149.644 12.312 149.22 13.166 C 149.22 13.166 151.658 12.546 152.998 10.863 C 153.292 10.478 153.791 9.788 153.456 9.375 C 153.358 9.246 152.637 8.824 150.646 11.042 Z  M 134.406 3.194 C 134.189 3.494 134.006 3.862 133.624 4.585 C 133.255 5.297 132.518 7.41 131.909 8.867 C 130.856 11.392 129.292 13.65 127.369 15.265 C 125.761 16.611 124.935 17.175 123.643 17.642 C 123.643 17.642 124.131 17.822 125.241 17.866 C 129.519 18.055 133.126 16.144 135.169 13.281 C 137.058 10.626 138.404 7.047 136.244 3.8 C 134.201 0.747 125.263 -0.476 120.417 3.695 C 117.747 5.997 118.667 9.469 122.448 8.003 C 123.11 7.709 123.731 7.199 123.958 6.741 C 126.143 7.545 128.737 5.852 128.737 5.852 C 128.737 5.852 126.89 9.989 122.394 10.595 C 117.8 11.191 116.517 8.8 116.571 7.11 C 117.018 1.472 128.097 -1.813 134.712 1.059 C 140.119 3.418 141.273 7.558 140.163 10.869 C 138.524 15.731 134.375 17.812 130.421 18.67 C 126.174 19.581 122.709 18.746 121.559 18.459 C 121.07 18.333 120.84 18.191 120.84 18.191 C 120.84 18.191 122.35 17.144 123.807 15.391 C 125.024 13.905 126.294 12.102 127.196 10.56 C 129.28 6.987 132.038 4.162 134.406 3.194 Z  M 145.941 3.501 C 145.048 4.002 144.638 4.951 145.048 5.647 C 145.455 6.372 146.546 6.47 147.385 5.994 C 148.215 5.528 148.689 4.57 148.269 3.861 C 147.859 3.148 146.835 3.013 145.941 3.501 Z  M 145.199 15.977 C 144.241 16.96 143.252 17.849 142.095 18.448 C 141.15 18.861 139.974 19.273 139.057 18.549 C 138.621 18.136 138.589 17.449 138.741 16.888 C 138.918 16.302 139.221 15.75 139.516 15.211 L 143.47 7.976 L 143.6 7.91 C 144.295 7.91 146.397 7.901 146.486 7.91 L 146.518 7.986 L 145.158 10.523 C 145.158 10.523 142.215 15.965 142.085 16.195 C 141.792 16.749 142.054 17.181 142.901 16.645 C 143.925 16.006 144.491 15.325 145.114 14.512 C 145.952 13.425 146.41 11.975 147.845 10.456 C 149.239 8.975 150.362 8.285 151.55 7.879 C 152.922 7.412 154.436 7.731 154.793 8.742 C 155.122 9.599 154.642 10.8 154.032 11.499 C 152.584 13.154 150.614 14.068 148.553 14.521 C 148.218 15.022 147.64 17.036 149.47 17.002 C 150.504 16.983 151.354 16.412 152.268 15.814 C 153.871 14.692 155.34 13.28 156.383 11.666 C 156.874 10.778 157.42 9.898 157.857 8.997 L 156.08 8.997 L 156.7 7.923 L 158.486 7.923 L 160.458 4.453 L 163.366 4.463 C 163.366 4.475 161.71 7.608 161.527 7.923 C 161.95 7.91 163.768 7.91 163.768 7.91 L 163.234 8.997 L 160.948 8.997 L 160.632 9.464 C 160.632 9.464 158.214 13.957 157.367 15.476 C 156.659 16.749 157.18 16.948 157.714 16.727 C 158.422 16.434 159.292 15.489 159.599 15.18 C 160.12 14.565 160.654 13.957 161.09 13.311 C 161.505 13.302 162.058 13.311 162.244 13.311 C 160.86 15.58 158.739 18.17 156.058 18.88 C 155.34 18.996 154.458 19.018 153.946 18.457 C 153.456 17.947 153.488 17.09 153.728 16.481 C 153.814 16.27 153.911 16.047 153.956 15.965 L 153.871 15.924 C 152.214 17.458 150.2 18.936 147.966 18.958 C 147.052 18.958 146.018 18.561 145.569 17.682 C 145.114 16.803 145.222 16.204 145.199 15.977 Z " fill-rule="evenodd" fill="rgb(220,12,28)"/><path d=" M 134.908 45.776 C 134.908 59.223 144.012 67.197 156.963 67.225 C 171.872 67.225 176.01 55.443 176.515 53.789 C 176.515 53.789 170.195 60.759 160.87 60.745 C 151.387 60.745 150.246 50.715 150.009 48.546 C 155.645 48.568 175.485 48.622 175.485 36.22 C 175.504 27.319 166.149 22.857 157.857 22.857 C 143.234 22.857 134.922 32.498 134.908 45.776 Z  M 34.825 61.461 C 24.125 61.461 16.506 54.061 16.506 35.757 C 16.52 17.432 23.537 8.064 33.169 8.064 C 45.131 8.082 50.719 21.8 51.915 24.697 L 51.9 8.236 C 47.967 7.184 41.738 3.918 32.579 3.904 C 13.771 3.886 0.013 18.112 0 36.634 C -0.018 55.029 12.555 67.375 30.378 67.375 C 42.691 67.389 49.501 61.288 52.559 57.505 C 56.539 63.524 63.568 67.087 72.181 67.101 C 88.602 67.101 97.002 56.729 97.002 44.655 C 97.02 32.63 89.271 22.609 73.15 22.609 C 61.052 22.596 49.013 29.527 48.995 44.933 C 48.995 47.771 49.432 50.402 50.249 52.789 L 50.243 52.771 C 47.403 56.388 42.271 61.479 34.825 61.461 Z  M 63.523 44.362 C 63.505 41.045 63.684 25.95 72.554 25.95 C 80.721 25.95 81.177 38.882 81.163 44.842 C 81.163 50.783 80.499 63.623 72.177 63.623 C 63.587 63.623 63.505 49.738 63.523 44.362 Z  M 99.563 6.984 L 113.205 6.984 L 113.205 42.497 L 130.497 22.326 L 138.713 22.326 L 124.129 39.184 C 127.503 44.876 135.615 58.547 140.003 65.761 L 126.092 65.761 C 122.736 59.919 118.694 52.803 116.241 48.477 L 113.205 51.987 L 113.205 65.761 L 99.563 65.761 L 99.563 6.984 Z  M 149.605 44.433 C 149.548 30.305 153.595 26.39 157.009 26.39 C 161.909 26.333 163.835 31.872 163.821 35.894 C 163.821 44.031 154.265 44.151 149.605 44.433 Z " fill-rule="evenodd" fill="rgb(220,12,28)"/></g></svg>